<svg width="47" height="47" viewBox="0 0 47 47" fill="none" xmlns="http://www.w3.org/2000/svg">
<rect width="47" height="47" rx="23.5" fill="#FDFDFE"/>
<path d="M25.5567 39.4932C25.8469 38.3803 25.6819 37.1984 25.0979 36.2074L20.6568 28.7838C20.3022 28.1912 19.5268 28.0079 18.9432 28.3787C18.3846 28.7337 18.2092 29.4667 18.5469 30.035L22.3109 36.37C21.9799 36.3902 21.312 36.1105 20.0973 36.625C19.456 36.8966 18.4826 37.4325 17.8546 38.5303C17.5178 39.2837 17.2346 40.3404 17.8186 41.3314C18.4026 42.3223 18.924 42.6249 20.0402 42.9134C21.1563 43.2019 22.5557 42.7246 23.5502 42.1417C24.5447 41.5588 25.2664 40.6061 25.5567 39.4932Z" fill="#2A282C"/>
<path d="M35.7927 30.0033C36.0382 28.8797 35.826 27.7053 35.2028 26.7384L32.3642 22.0731C31.9971 21.4698 31.267 21.1908 30.5897 21.3951C29.903 21.6595 29.6254 22.4806 30.0115 23.1056L32.4245 27.0117C32.0946 27.0452 31.416 26.7922 30.2229 27.3547C29.593 27.6516 28.6418 28.2258 28.0582 29.3478C27.7518 30.114 27.5112 31.1811 28.1344 32.148C28.7576 33.1149 29.2907 33.3965 30.4175 33.6404C31.5443 33.8842 32.9235 33.3516 33.8938 32.7295C34.8642 32.1075 35.5472 31.1268 35.7927 30.0033Z" fill="#2A282C"/>
<path d="M14.5229 31.1703C12.4606 35.0669 15.0528 35.9367 17.2889 34.4959C17.734 34.2091 18.3401 34.223 18.695 34.6155C19.0417 34.9988 19.014 35.5896 18.5946 35.8921C16.9458 37.0815 13.9464 38.508 11.0554 37.9983C9.19837 37.6708 3.57602 33.6671 4.02548 24.1185C4.19056 19.7476 7.59736 10.905 13.7869 7.277C19.9764 3.64898 29.3802 4.98246 33.2897 6.9651C41.8733 11.2189 42.3745 18.3546 41.86 19.8377C40.8855 22.6468 38.3601 24.5129 36.5828 25.3325C36.1563 25.5292 35.6694 25.3159 35.4732 24.89C35.2415 24.3866 35.5124 23.8005 35.9983 23.5324C38.2876 22.2694 38.7329 19.6402 34.3604 19.5424C29.7796 19.44 23.3303 23.2274 23.2061 23.3006C23.2022 23.3029 23.2064 23.3005 23.2025 23.3027C23.0779 23.3753 16.6615 27.1294 14.5229 31.1703Z" fill="#2A282C"/>
<path d="M29.2391 10.4033C29.2391 12.2233 27.7597 13.6987 25.9348 13.6987C24.1099 13.6987 22.6305 12.2233 22.6305 10.4033C22.6305 8.58326 24.1099 7.10786 25.9348 7.10786C27.7597 7.10786 29.2391 8.58326 29.2391 10.4033Z" fill="white"/>
<path d="M33.5047 13.6987C33.5047 14.7245 32.6709 15.5561 31.6423 15.5561C30.6137 15.5561 29.7798 14.7245 29.7798 13.6987C29.7798 12.6729 30.6137 11.8413 31.6423 11.8413C32.6709 11.8413 33.5047 12.6729 33.5047 13.6987Z" fill="white"/>
</svg>
