<svg width="40" height="40" viewBox="0 0 40 40" fill="none" xmlns="http://www.w3.org/2000/svg">
<rect width="40" height="40" rx="20" fill="#FDFDFE"/>
<path d="M22.2876 33.8623C22.5473 32.8666 22.3996 31.8091 21.8771 30.9224L17.9034 24.2803C17.5862 23.75 16.8924 23.586 16.3702 23.9178C15.8704 24.2354 15.7135 24.8913 16.0156 25.3998L19.3834 31.0679C19.0873 31.086 18.4896 30.8357 17.4028 31.296C16.829 31.5391 15.9581 32.0185 15.3962 33.0008C15.0949 33.6749 14.8415 34.6204 15.364 35.507C15.8865 36.3937 16.3531 36.6644 17.3517 36.9225C18.3504 37.1807 19.6025 36.7536 20.4923 36.2321C21.3821 35.7105 22.0279 34.8581 22.2876 33.8623Z" fill="#7631C4"/>
<path d="M31.4461 25.3713C31.6658 24.3661 31.4759 23.3152 30.9183 22.4501L28.3785 18.276C28.0501 17.7361 27.3968 17.4865 26.7907 17.6693C26.1763 17.9059 25.928 18.6406 26.2735 19.1998L28.4324 22.6947C28.1373 22.7246 27.5301 22.4983 26.4626 23.0015C25.899 23.2672 25.0479 23.781 24.5258 24.7848C24.2516 25.4704 24.0363 26.4252 24.5939 27.2903C25.1515 28.1555 25.6285 28.4074 26.6367 28.6256C27.6449 28.8438 28.8789 28.3672 29.7471 27.8106C30.6153 27.2541 31.2265 26.3766 31.4461 25.3713Z" fill="#7631C4"/>
<path d="M12.4152 26.4156C10.57 29.902 12.8894 30.6802 14.8901 29.3911C15.2883 29.1345 15.8306 29.1469 16.1482 29.498C16.4583 29.8411 16.4336 30.3696 16.0583 30.6403C14.583 31.7045 11.8994 32.9809 9.31273 32.5248C7.65117 32.2318 2.62065 28.6495 3.02279 20.1061C3.1705 16.1952 6.21869 8.28345 11.7567 5.03732C17.2947 1.79119 25.7086 2.9843 29.2066 4.75825C36.8866 8.56425 37.335 14.9489 36.8747 16.2758C36.0028 18.7893 33.7432 20.4589 32.1531 21.1922C31.7714 21.3682 31.3357 21.1774 31.1603 20.7963C30.9529 20.3459 31.1953 19.8215 31.6301 19.5816C33.6784 18.4516 34.0768 16.0992 30.1645 16.0117C26.0659 15.92 20.2956 19.3087 20.1844 19.3742C20.181 19.3763 20.1846 19.3741 20.1812 19.3761C20.0697 19.4411 14.3287 22.8 12.4152 26.4156Z" fill="#7631C4"/>
<path d="M25.5824 7.83451C25.5824 9.46294 24.2587 10.783 22.6259 10.783C20.993 10.783 19.6694 9.46294 19.6694 7.83451C19.6694 6.20608 20.993 4.88598 22.6259 4.88598C24.2587 4.88598 25.5824 6.20608 25.5824 7.83451Z" fill="white"/>
<path d="M29.399 10.783C29.399 11.7009 28.6529 12.4449 27.7326 12.4449C26.8122 12.4449 26.0662 11.7009 26.0662 10.783C26.0662 9.8652 26.8122 9.12114 27.7326 9.12114C28.6529 9.12114 29.399 9.8652 29.399 10.783Z" fill="white"/>
<path d="M24.8298 13.0615C24.8298 13.6684 24.3365 14.1604 23.7278 14.1604C23.1192 14.1604 22.6259 13.6684 22.6259 13.0615C22.6259 12.4545 23.1192 11.9625 23.7278 11.9625C24.3365 11.9625 24.8298 12.4545 24.8298 13.0615Z" fill="white"/>
</svg>
