<svg width="60" height="60" viewBox="0 0 60 60" fill="none" xmlns="http://www.w3.org/2000/svg">
<rect width="60" height="60" rx="30" fill="white"/>
<path d="M33.2295 49.5703C33.5961 48.1646 33.3877 46.6716 32.65 45.4199L27.0401 36.0428C26.5923 35.2941 25.6128 35.0626 24.8756 35.531C24.17 35.9794 23.9484 36.9053 24.375 37.6232L29.1295 45.6252C28.7114 45.6508 27.8677 45.2974 26.3334 45.9474C25.5234 46.2905 24.2938 46.9673 23.5005 48.3541C23.0751 49.3058 22.7174 50.6405 23.4551 51.8923C24.1928 53.144 24.8514 53.5262 26.2613 53.8906C27.6711 54.2551 29.4388 53.6522 30.695 52.9158C31.9512 52.1795 32.8629 50.9761 33.2295 49.5703Z" fill="#7631C4"/>
<path d="M46.1592 37.5831C46.4693 36.1638 46.2013 34.6804 45.4141 33.459L41.8285 27.5661C41.3648 26.8039 40.4426 26.4515 39.5869 26.7096C38.7195 27.0436 38.369 28.0808 38.8567 28.8703L41.9046 33.8043C41.4879 33.8465 40.6307 33.527 39.1237 34.2375C38.328 34.6126 37.1264 35.3378 36.3893 36.7551C36.0023 37.7229 35.6983 39.0708 36.4855 40.2922C37.2727 41.5136 37.9461 41.8692 39.3694 42.1773C40.7928 42.4853 42.5349 41.8125 43.7606 41.0268C44.9863 40.2411 45.8491 39.0023 46.1592 37.5831Z" fill="#7631C4"/>
<path d="M19.292 39.0573C16.687 43.9793 19.9614 45.078 22.786 43.258C23.3482 42.8957 24.1138 42.9132 24.5621 43.409C25 43.8933 24.965 44.6394 24.4353 45.0216C22.3525 46.5241 18.5639 48.3259 14.9121 47.682C12.5664 47.2684 5.46444 42.211 6.03218 30.1497C6.2407 24.6285 10.544 13.459 18.3624 8.87622C26.1807 4.29344 38.0592 5.97784 42.9975 8.48223C53.8399 13.8554 54.473 22.869 53.8231 24.7424C52.5922 28.2907 49.4022 30.6479 47.1573 31.6831C46.6184 31.9316 46.0034 31.6622 45.7557 31.1241C45.4629 30.4884 45.8051 29.748 46.4189 29.4094C49.3107 27.814 49.8731 24.4929 44.35 24.3694C38.5637 24.24 30.4173 29.0241 30.2604 29.1165C30.2555 29.1194 30.2607 29.1164 30.2557 29.1193C30.0984 29.211 21.9935 33.9529 19.292 39.0573Z" fill="#7631C4"/>
<path d="M37.881 12.8252C37.881 15.1241 36.0123 16.9878 33.7071 16.9878C31.402 16.9878 29.5332 15.1241 29.5332 12.8252C29.5332 10.5262 31.402 8.66255 33.7071 8.66255C36.0123 8.66255 37.881 10.5262 37.881 12.8252Z" fill="white"/>
<path d="M43.2691 16.9878C43.2691 18.2836 42.2158 19.334 40.9166 19.334C39.6173 19.334 38.564 18.2836 38.564 16.9878C38.564 15.692 39.6173 14.6416 40.9166 14.6416C42.2158 14.6416 43.2691 15.692 43.2691 16.9878Z" fill="white"/>
<path d="M36.8186 20.2044C36.8186 21.0613 36.122 21.7559 35.2628 21.7559C34.4036 21.7559 33.7071 21.0613 33.7071 20.2044C33.7071 19.3475 34.4036 18.6529 35.2628 18.6529C36.122 18.6529 36.8186 19.3475 36.8186 20.2044Z" fill="white"/>
</svg>
