<svg width="183" height="43" viewBox="0 0 183 43" fill="none" xmlns="http://www.w3.org/2000/svg">
<rect y="3" width="40" height="40" rx="20" fill="#FDFDFE"/>
<path d="M57.5811 36C55.8259 36 54.3794 35.7447 53.2418 35.234C52.1367 34.7234 51.2753 34.0372 50.6577 33.1755C50.0401 32.2819 49.6013 31.2606 49.3413 30.1117C49.1138 28.9308 49 27.6702 49 26.3298V11.9202H56.8985V25.4681C56.8985 26.6489 57.126 27.4468 57.5811 27.8617C58.0687 28.2447 58.6862 28.4362 59.4338 28.4362C60.0189 28.4362 60.5877 28.3404 61.1403 28.1489C61.7254 27.9574 62.2942 27.6702 62.8468 27.2872C63.4318 26.9043 64.0007 26.4096 64.5532 25.8032L66.2109 29.633H63.7731V11.9202H71.7204V35.3777H65.8697L64.2607 30.5426L67.1373 30.8777C66.3572 31.7394 65.4634 32.5691 64.4557 33.367C63.4481 34.133 62.3592 34.7713 61.1891 35.2819C60.0514 35.7606 58.8488 36 57.5811 36Z" fill="#FDFDFE"/>
<path d="M80.7129 11.9202L82.7606 18.4787V35.3777H74.8621V23.6489V11.9202H80.7129ZM80.9079 23.0266L79.6402 22.5V16.3723L80.1278 15.8457C80.5178 15.2713 81.0867 14.633 81.8343 13.9309C82.6144 13.2287 83.492 12.6223 84.4671 12.1117C85.4747 11.5691 86.5149 11.2979 87.5875 11.2979C88.1076 11.2979 88.5789 11.3457 89.0014 11.4415C89.424 11.5053 89.749 11.617 89.9766 11.7766V18.8617H88.3676C86.3523 18.8617 84.7109 19.1968 83.4432 19.867C82.2081 20.5053 81.363 21.5585 80.9079 23.0266Z" fill="#FDFDFE"/>
<path d="M99.8802 35.3777L88.7637 2.77659H96.906L105.975 30.0638H102.562L111.728 2.77659H119.626L108.51 35.3777H99.8802Z" fill="#FDFDFE"/>
<path d="M129.472 35.3777H121.524V11.9202H129.472V35.3777ZM120.939 4.5C120.939 3.12766 121.362 2.04255 122.207 1.24468C123.052 0.414893 124.157 0 125.522 0C126.92 0 128.025 0.414893 128.838 1.24468C129.651 2.04255 130.057 3.12766 130.057 4.5C130.057 5.80851 129.651 6.87766 128.838 7.70745C128.025 8.50532 126.92 8.90425 125.522 8.90425C124.157 8.90425 123.052 8.50532 122.207 7.70745C121.362 6.87766 120.939 5.80851 120.939 4.5Z" fill="#FDFDFE"/>
<path d="M146.268 36C144.22 36 142.416 35.5053 140.856 34.516C139.328 33.5266 138.126 32.1064 137.248 30.2553C136.403 28.4043 135.98 26.2021 135.98 23.6489C135.98 20.9362 136.403 18.6702 137.248 16.8511C138.093 15 139.28 13.6117 140.807 12.6862C142.335 11.7606 144.139 11.2979 146.219 11.2979C148.332 11.2979 150.217 11.8245 151.875 12.8777C153.565 13.9309 154.882 15.3989 155.824 17.2819C156.767 19.133 157.238 21.2553 157.238 23.6489C157.238 26.0106 156.767 28.133 155.824 30.016C154.914 31.8989 153.63 33.367 151.972 34.4202C150.347 35.4734 148.446 36 146.268 36ZM132.665 35.3777V2.77659H140.563V18.8617H140.125V28.9628H140.563L138.516 35.3777H132.665ZM144.708 28.5319C145.975 28.5319 147.032 28.0851 147.877 27.1915C148.754 26.266 149.193 25.0851 149.193 23.6489C149.193 22.2447 148.754 21.0798 147.877 20.1543C147.032 19.1968 145.975 18.7181 144.708 18.7181C143.44 18.7181 142.367 19.1968 141.49 20.1543C140.612 21.0798 140.173 22.2447 140.173 23.6489C140.173 25.0851 140.612 26.266 141.49 27.1915C142.367 28.0851 143.44 28.5319 144.708 28.5319Z" fill="#FDFDFE"/>
<path d="M170.957 35.8085C168.552 35.8085 166.439 35.3138 164.619 34.3245C162.831 33.3351 161.433 31.9308 160.426 30.1117C159.418 28.2926 158.914 26.1383 158.914 23.6489C158.914 21.2553 159.418 19.133 160.426 17.2819C161.433 15.4309 162.831 13.9787 164.619 12.9255C166.439 11.8404 168.552 11.2979 170.957 11.2979C173.46 11.2979 175.605 11.8564 177.393 12.9734C179.181 14.0904 180.562 15.5745 181.537 17.4255C182.512 19.2447 183 21.2872 183 23.5532C183 24.0638 182.984 24.5266 182.951 24.9415C182.919 25.3564 182.87 25.6915 182.805 25.9468H164.814V20.6809H176.71L176.028 22.4043C176.028 20.9043 175.622 19.6755 174.809 18.7181C173.996 17.7606 172.745 17.2819 171.055 17.2819C169.495 17.2819 168.259 17.7287 167.349 18.6223C166.439 19.516 165.984 20.7128 165.984 22.2128V24.8457C165.984 26.4734 166.472 27.734 167.447 28.6277C168.422 29.4894 169.787 29.9202 171.542 29.9202C172.94 29.9202 174.045 29.6649 174.858 29.1543C175.703 28.6117 176.402 27.9255 176.954 27.0957L182.22 29.8723C181.212 31.6915 179.733 33.1436 177.783 34.2287C175.833 35.2819 173.558 35.8085 170.957 35.8085Z" fill="#FDFDFE"/>
<path d="M22.2876 37.8623C22.5473 36.8666 22.3996 35.8091 21.8771 34.9224L17.9034 28.2803C17.5862 27.75 16.8924 27.586 16.3702 27.9178C15.8704 28.2354 15.7135 28.8913 16.0156 29.3998L19.3834 35.0679C19.0873 35.086 18.4896 34.8357 17.4028 35.296C16.829 35.5391 15.9581 36.0185 15.3962 37.0008C15.0949 37.6749 14.8415 38.6204 15.364 39.507C15.8865 40.3937 16.3531 40.6644 17.3517 40.9225C18.3504 41.1807 19.6025 40.7536 20.4923 40.2321C21.3821 39.7105 22.0279 38.8581 22.2876 37.8623Z" fill="#7631C4"/>
<path d="M31.4461 29.3713C31.6658 28.3661 31.4759 27.3152 30.9183 26.4501L28.3785 22.276C28.0501 21.7361 27.3968 21.4865 26.7907 21.6693C26.1763 21.9059 25.928 22.6406 26.2735 23.1998L28.4324 26.6947C28.1373 26.7246 27.5301 26.4983 26.4626 27.0015C25.899 27.2672 25.0479 27.781 24.5258 28.7848C24.2516 29.4704 24.0363 30.4252 24.5939 31.2903C25.1515 32.1555 25.6285 32.4074 26.6367 32.6256C27.6449 32.8438 28.8789 32.3672 29.7471 31.8106C30.6153 31.2541 31.2265 30.3766 31.4461 29.3713Z" fill="#7631C4"/>
<path d="M12.4152 30.4156C10.57 33.902 12.8894 34.6802 14.8901 33.3911C15.2883 33.1345 15.8306 33.1469 16.1482 33.498C16.4583 33.8411 16.4336 34.3696 16.0583 34.6403C14.583 35.7045 11.8994 36.9809 9.31273 36.5248C7.65117 36.2318 2.62065 32.6495 3.02279 24.1061C3.1705 20.1952 6.21869 12.2834 11.7567 9.03732C17.2947 5.79119 25.7086 6.9843 29.2066 8.75825C36.8866 12.5642 37.335 18.9489 36.8747 20.2758C36.0028 22.7893 33.7432 24.4589 32.1531 25.1922C31.7714 25.3682 31.3357 25.1774 31.1603 24.7963C30.9529 24.3459 31.1953 23.8215 31.6301 23.5816C33.6784 22.4516 34.0768 20.0992 30.1645 20.0117C26.0659 19.92 20.2956 23.3087 20.1844 23.3742C20.181 23.3763 20.1846 23.3741 20.1812 23.3761C20.0697 23.4411 14.3287 26.8 12.4152 30.4156Z" fill="#7631C4"/>
<path d="M25.5824 11.8345C25.5824 13.4629 24.2587 14.783 22.6259 14.783C20.993 14.783 19.6694 13.4629 19.6694 11.8345C19.6694 10.2061 20.993 8.88598 22.6259 8.88598C24.2587 8.88598 25.5824 10.2061 25.5824 11.8345Z" fill="white"/>
<path d="M29.399 14.783C29.399 15.7009 28.6529 16.4449 27.7326 16.4449C26.8122 16.4449 26.0662 15.7009 26.0662 14.783C26.0662 13.8652 26.8122 13.1211 27.7326 13.1211C28.6529 13.1211 29.399 13.8652 29.399 14.783Z" fill="white"/>
</svg>
