<svg width="62" height="62" viewBox="0 0 62 62" fill="none" xmlns="http://www.w3.org/2000/svg">
<path d="M28.4167 36.1668C31 36.1668 33.7125 36.5802 36.6833 37.3035C34.5908 39.551 33.5833 42.186 33.5833 45.2085C33.5833 47.5077 34.2292 49.6777 35.5983 51.6668H7.75V46.5002C7.75 43.426 10.1008 40.946 14.8283 39.0602C19.5558 37.1485 24.1025 36.1668 28.4167 36.1668ZM28.4167 31.0002C25.6267 31.0002 23.25 29.9927 21.1317 27.9777C19.065 25.9627 18.0833 23.5343 18.0833 20.6668C18.0833 17.8768 19.065 15.5002 21.1317 13.3818C23.25 11.3152 25.6267 10.3335 28.4167 10.3335C31.2842 10.3335 33.7125 11.3152 35.7275 13.3818C37.7425 15.5002 38.75 17.8768 38.75 20.6668C38.75 23.5343 37.7425 25.9627 35.7275 27.9777C33.7125 29.9927 31.2842 31.0002 28.4167 31.0002ZM47.7917 25.8335H51.6667H56.8333V31.0002H51.6667V45.2085C51.6667 46.9214 50.9862 48.5641 49.7751 49.7752C48.5639 50.9864 46.9212 51.6668 45.2083 51.6668C43.4955 51.6668 41.8528 50.9864 40.6416 49.7752C39.4304 48.5641 38.75 46.9214 38.75 45.2085C38.75 43.4956 39.4304 41.8529 40.6416 40.6418C41.8528 39.4306 43.4955 38.7502 45.2083 38.7502C46.1383 38.7502 46.9908 38.931 47.7917 39.2927V25.8335Z" fill="#2A282C"/>
</svg>
