<svg width="1728" height="803" viewBox="0 0 1728 803" fill="none" xmlns="http://www.w3.org/2000/svg">
<g opacity="0.2">
<path d="M593.849 170.563L595.327 164.813L599.875 162.11C601.523 161.15 602.301 159.143 601.795 157.296C601.389 155.808 600.24 154.69 598.811 154.322C598.466 154.234 598.059 154.182 597.721 154.2C595.824 154.221 594.203 155.555 593.73 157.396L592.362 162.719L585.864 166.602C582.423 168.678 580.533 172.624 581.095 176.639C581.558 180.086 583.765 182.948 586.809 184.326L586.552 185.328C586.442 185.756 585.963 186.053 585.519 185.939L583.054 185.305L582.21 188.592L584.674 189.225C586.893 189.795 589.251 188.457 589.838 186.173L590.049 185.351C593.384 186.208 597.695 183.953 598.89 179.303C599.861 175.524 597.53 171.509 593.849 170.563ZM597.016 158.24C597.113 157.862 597.37 157.613 597.74 157.603C598.127 157.597 598.467 157.842 598.563 158.217C598.676 158.597 598.505 158.991 598.174 159.186L596.497 160.261L597.016 158.24ZM590.352 170.54C588.488 171.182 586.824 172.682 585.966 174.248L588.967 175.93L587.679 180.941C585.949 179.971 584.701 178.214 584.411 176.143C584.058 173.495 585.284 170.902 587.565 169.526L591.196 167.254L590.352 170.54ZM590.893 182.065L593.03 173.751C594.952 174.245 596.147 176.479 595.637 178.467C594.898 181.342 592.389 182.449 590.893 182.065Z" fill="#FDFDFE"/>
</g>
<g opacity="0.2">
<path d="M835.815 -5.33308L833.959 -8.17351L818.962 1.62529C818.913 0.430861 818.547 -0.729058 817.901 -1.73478C817.167 -2.85835 816.116 -3.739 814.882 -4.26537C813.647 -4.79175 812.284 -4.94019 810.965 -4.69195C809.646 -4.4437 808.43 -3.80991 807.472 -2.87072C806.513 -1.93153 805.854 -0.729122 805.579 0.584449C805.303 1.89802 805.424 3.26376 805.924 4.50895C806.425 5.75415 807.284 6.82288 808.392 7.58C809.5 8.33711 810.808 8.74861 812.15 8.76245C813.492 8.77629 814.808 8.39186 815.932 7.65776L835.815 -5.33308ZM809.38 3.83272C809.013 3.27094 808.821 2.61292 808.827 1.94189C808.834 1.27087 809.04 0.616959 809.419 0.0628636C809.797 -0.491232 810.332 -0.920628 810.954 -1.17103C811.577 -1.42142 812.26 -1.48158 812.916 -1.34388C813.573 -1.20618 814.174 -0.876812 814.644 -0.397429C815.114 0.0819536 815.431 0.689822 815.555 1.34931C815.679 2.00879 815.605 2.69028 815.341 3.30758C815.078 3.92488 814.638 4.45027 814.076 4.81732C813.323 5.30952 812.405 5.4823 811.524 5.29765C810.643 5.113 809.872 4.58605 809.38 3.83272ZM813.991 13.9921C813.716 13.5707 813.572 13.0772 813.577 12.5739C813.582 12.0707 813.736 11.5802 814.02 11.1647C814.304 10.7491 814.705 10.427 815.172 10.2392C815.639 10.0514 816.151 10.0063 816.644 10.1096C817.136 10.2129 817.587 10.4599 817.939 10.8194C818.291 11.179 818.529 11.6349 818.622 12.1295C818.715 12.6241 818.66 13.1352 818.462 13.5982C818.265 14.0612 817.935 14.4552 817.513 14.7305C816.948 15.0997 816.26 15.2292 815.599 15.0908C814.939 14.9523 814.36 14.5571 813.991 13.9921Z" fill="#FDFDFE"/>
</g>
<g opacity="0.2" clip-path="url(#clip0_695_388)">
<path d="M66.0683 475.995L77.1068 494.101C77.9265 495.446 78.1786 497.061 77.8074 498.592C77.4363 500.122 76.4724 501.442 75.1278 502.262C73.7832 503.082 72.168 503.334 70.6376 502.963C69.1072 502.592 67.7869 501.628 66.9672 500.283C66.1474 498.938 65.8954 497.323 66.2666 495.793C66.6377 494.262 67.6016 492.942 68.9462 492.122C69.7284 491.646 70.5731 491.369 71.4192 491.29L66.2356 482.787L53.6313 494.704L61.4907 507.595C62.3104 508.94 62.5624 510.555 62.1913 512.086C61.8201 513.616 60.8563 514.936 59.5116 515.756C58.167 516.576 56.5519 516.828 55.0215 516.457C53.4911 516.086 52.1708 515.122 51.351 513.777C50.5313 512.432 50.2793 510.817 50.6504 509.287C51.0216 507.756 51.9855 506.436 53.3301 505.616C54.1123 505.14 54.957 504.863 55.8031 504.784L48.4382 492.704L66.0683 475.995Z" fill="#FDFDFE"/>
</g>
<g opacity="0.2" clip-path="url(#clip1_695_388)">
<path d="M196.608 583.713L198.111 580.671L192.027 577.665L187.894 586.03C187.488 585.243 186.855 584.571 185.988 584.142C184.98 583.644 183.815 583.567 182.749 583.927C181.684 584.288 180.805 585.057 180.307 586.066C179.809 587.074 179.731 588.239 180.092 589.305C180.453 590.37 181.222 591.249 182.23 591.747C183.239 592.245 184.404 592.323 185.469 591.962C186.535 591.601 187.413 590.832 187.912 589.824L192.045 581.458L196.608 583.713ZM195.785 570.06C197.782 571.047 199.566 572.418 201.033 574.094C202.501 575.77 203.624 577.719 204.338 579.829C205.053 581.94 205.345 584.17 205.197 586.393C205.05 588.616 204.466 590.788 203.479 592.785C201.486 596.819 197.972 599.896 193.71 601.339C189.448 602.781 184.788 602.472 180.754 600.479C178.757 599.492 176.973 598.121 175.506 596.445C174.038 594.769 172.915 592.82 172.201 590.71C170.758 586.448 171.067 581.788 173.06 577.754C175.053 573.72 178.567 570.644 182.829 569.201C187.091 567.758 191.751 568.067 195.785 570.06V570.06Z" fill="#FDFDFE"/>
</g>
<g opacity="0.2">
<path d="M111.265 727.345L109.409 724.504L94.4118 734.303C94.3635 733.109 93.9974 731.949 93.3513 730.943C92.6172 729.819 91.5664 728.939 90.3318 728.412C89.0972 727.886 87.7342 727.738 86.4153 727.986C85.0963 728.234 83.8805 728.868 82.9218 729.807C81.963 730.746 81.3043 731.949 81.0289 733.262C80.7535 734.576 80.8738 735.941 81.3746 737.187C81.8754 738.432 82.7342 739.501 83.8424 740.258C84.9506 741.015 86.2584 741.426 87.6004 741.44C88.9425 741.454 90.2585 741.07 91.3821 740.335L111.265 727.345ZM84.83 736.51C84.4629 735.949 84.2707 735.291 84.2776 734.62C84.2846 733.949 84.4903 733.295 84.8689 732.741C85.2474 732.187 85.7818 731.757 86.4044 731.507C87.027 731.256 87.7098 731.196 88.3666 731.334C89.0234 731.472 89.6246 731.801 90.0942 732.28C90.5638 732.76 90.8807 733.368 91.0048 734.027C91.129 734.687 91.0547 735.368 90.7915 735.985C90.5284 736.603 90.088 737.128 89.5262 737.495C88.7729 737.987 87.8549 738.16 86.9742 737.975C86.0935 737.791 85.3222 737.264 84.83 736.51ZM89.4412 746.67C89.1659 746.248 89.0218 745.755 89.027 745.252C89.0322 744.748 89.1865 744.258 89.4704 743.842C89.7543 743.427 90.1551 743.105 90.622 742.917C91.089 742.729 91.6011 742.684 92.0937 742.787C92.5863 742.891 93.0372 743.138 93.3894 743.497C93.7416 743.857 93.9793 744.313 94.0724 744.807C94.1655 745.302 94.1098 745.813 93.9124 746.276C93.715 746.739 93.3848 747.133 92.9634 747.408C92.3984 747.777 91.7099 747.907 91.0494 747.768C90.3888 747.63 89.8104 747.235 89.4412 746.67Z" fill="#FDFDFE"/>
</g>
<g opacity="0.2" clip-path="url(#clip2_695_388)">
<path d="M6.06833 96.9949L17.1068 115.101C17.9265 116.446 18.1786 118.061 17.8074 119.592C17.4363 121.122 16.4724 122.442 15.1278 123.262C13.7832 124.082 12.168 124.334 10.6376 123.963C9.10718 123.592 7.78688 122.628 6.96716 121.283C6.14743 119.938 5.89542 118.323 6.26657 116.793C6.63771 115.262 7.60161 113.942 8.94621 113.122C9.72841 112.646 10.5731 112.369 11.4192 112.29L6.23557 103.787L-6.36871 115.704L1.4907 128.595C2.31043 129.94 2.56244 131.555 2.19129 133.086C1.82015 134.616 0.856252 135.936 -0.48835 136.756C-1.83295 137.576 -3.44812 137.828 -4.97853 137.457C-6.50894 137.086 -7.82923 136.122 -8.64896 134.777C-9.46869 133.432 -9.7207 131.817 -9.34955 130.287C-8.97841 128.756 -8.01451 127.436 -6.66991 126.616C-5.8877 126.14 -5.04299 125.863 -4.19688 125.784L-11.5618 113.704L6.06833 96.9949Z" fill="#FDFDFE"/>
</g>
<g opacity="0.2" clip-path="url(#clip3_695_388)">
<path d="M335.608 203.713L337.111 200.671L331.027 197.665L326.894 206.03C326.488 205.243 325.855 204.571 324.988 204.142C323.98 203.644 322.815 203.567 321.749 203.927C320.684 204.288 319.805 205.057 319.307 206.066C318.809 207.074 318.731 208.239 319.092 209.305C319.453 210.37 320.222 211.249 321.23 211.747C322.239 212.245 323.404 212.323 324.469 211.962C325.535 211.601 326.413 210.832 326.912 209.824L331.045 201.458L335.608 203.713ZM334.785 190.06C336.782 191.047 338.566 192.418 340.033 194.094C341.501 195.77 342.624 197.719 343.338 199.829C344.053 201.94 344.345 204.17 344.197 206.393C344.05 208.616 343.466 210.788 342.479 212.785C340.486 216.819 336.972 219.896 332.71 221.339C328.448 222.781 323.788 222.472 319.754 220.479C317.757 219.492 315.973 218.121 314.506 216.445C313.038 214.769 311.915 212.82 311.201 210.71C309.758 206.448 310.067 201.788 312.06 197.754C314.053 193.72 317.567 190.644 321.829 189.201C326.091 187.758 330.751 188.067 334.785 190.06V190.06Z" fill="#FDFDFE"/>
</g>
<g opacity="0.2">
<path d="M158.5 5.25V23.7125C157.492 23.1175 156.33 22.75 155.083 22.75C151.308 22.75 148.25 25.8825 148.25 29.75C148.25 33.6175 151.308 36.75 155.083 36.75C158.859 36.75 161.917 33.6175 161.917 29.75V12.25H168.75V5.25H158.5Z" fill="#FDFDFE"/>
</g>
<g opacity="0.2">
<path d="M120.815 306.667L118.96 303.826L103.962 313.625C103.914 312.431 103.548 311.271 102.902 310.265C102.167 309.142 101.117 308.261 99.8821 307.735C98.6475 307.208 97.2845 307.06 95.9655 307.308C94.6466 307.556 93.4308 308.19 92.4721 309.129C91.5133 310.068 90.8546 311.271 90.5792 312.584C90.3038 313.898 90.4241 315.264 90.9249 316.509C91.4257 317.754 92.2845 318.823 93.3927 319.58C94.5008 320.337 95.8087 320.749 97.1507 320.762C98.4928 320.776 99.8088 320.392 100.932 319.658L120.815 306.667ZM94.3803 315.833C94.0132 315.271 93.821 314.613 93.8279 313.942C93.8348 313.271 94.0406 312.617 94.4192 312.063C94.7977 311.509 95.3321 311.079 95.9547 310.829C96.5773 310.579 97.2601 310.518 97.9169 310.656C98.5737 310.794 99.1749 311.123 99.6445 311.603C100.114 312.082 100.431 312.69 100.555 313.349C100.679 314.009 100.605 314.69 100.342 315.308C100.079 315.925 99.6383 316.45 99.0765 316.817C98.3232 317.31 97.4052 317.482 96.5245 317.298C95.6438 317.113 94.8725 316.586 94.3803 315.833ZM98.9915 325.992C98.7162 325.571 98.5721 325.077 98.5773 324.574C98.5824 324.071 98.7368 323.58 99.0207 323.165C99.3046 322.749 99.7054 322.427 100.172 322.239C100.639 322.051 101.151 322.006 101.644 322.11C102.137 322.213 102.587 322.46 102.94 322.819C103.292 323.179 103.53 323.635 103.623 324.129C103.716 324.624 103.66 325.135 103.463 325.598C103.265 326.061 102.935 326.455 102.514 326.731C101.949 327.1 101.26 327.229 100.6 327.091C99.9391 326.952 99.3607 326.557 98.9915 325.992Z" fill="#FDFDFE"/>
</g>
<g opacity="0.2" clip-path="url(#clip4_695_388)">
<path d="M308.202 -15.5554C306.465 -16.2823 304.489 -15.4724 303.762 -13.7353L297.213 1.91432C296.486 3.65143 297.296 5.62714 299.033 6.35411L324.072 16.8331C325.809 17.56 327.785 16.7501 328.512 15.013L335.061 -0.636613C335.788 -2.37372 334.978 -4.34943 333.241 -5.07641L308.202 -15.5554ZM307.674 -12.098C308.089 -11.9243 308.418 -11.5928 308.589 -11.1765C308.76 -10.7602 308.758 -10.2931 308.584 -9.87807C308.411 -9.46302 308.079 -9.13397 307.663 -8.9633C307.247 -8.79264 306.779 -8.79435 306.364 -8.96805C305.949 -9.14175 305.62 -9.47321 305.45 -9.88952C305.279 -10.3058 305.281 -10.7729 305.454 -11.1879C305.628 -11.603 305.96 -11.9321 306.376 -12.1027C306.792 -12.2734 307.259 -12.2717 307.674 -12.098V-12.098ZM311.587 -10.4606L331.931 -1.94648L325.382 13.7031L305.037 5.18899L311.587 -10.4606ZM312.497 -8.24074L307.257 4.27897L311.952 6.24377L317.192 -6.27593L312.497 -8.24074ZM318.757 -5.621L313.517 6.8987L318.212 8.86351L323.451 -3.65619L318.757 -5.621ZM325.016 -3.00126L319.777 9.51844L324.472 11.4832L329.711 -1.03645L325.016 -3.00126ZM313.407 -6.02084L314.972 -5.3659L314.317 -3.80094L312.752 -4.45588L313.407 -6.02084ZM319.667 -3.4011L321.232 -2.74617L320.577 -1.1812L319.012 -1.83614L319.667 -3.4011ZM325.926 -0.781361L327.491 -0.126426L326.837 1.43854L325.272 0.783602L325.926 -0.781361Z" fill="#FDFDFE"/>
</g>
<g opacity="0.2" clip-path="url(#clip5_695_388)">
<path d="M1693.7 604.445C1691.97 603.718 1689.99 604.528 1689.26 606.265L1682.71 621.914C1681.99 623.651 1682.8 625.627 1684.53 626.354L1709.57 636.833C1711.31 637.56 1713.29 636.75 1714.01 635.013L1720.56 619.363C1721.29 617.626 1720.48 615.651 1718.74 614.924L1693.7 604.445ZM1693.18 607.902C1693.59 608.076 1693.92 608.407 1694.09 608.824C1694.26 609.24 1694.26 609.707 1694.09 610.122C1693.91 610.537 1693.58 610.866 1693.16 611.037C1692.75 611.207 1692.28 611.206 1691.87 611.032C1691.45 610.858 1691.12 610.527 1690.95 610.11C1690.78 609.694 1690.78 609.227 1690.96 608.812C1691.13 608.397 1691.46 608.068 1691.88 607.897C1692.29 607.727 1692.76 607.728 1693.18 607.902V607.902ZM1697.09 609.539L1717.43 618.054L1710.88 633.703L1690.54 625.189L1697.09 609.539ZM1698 611.759L1692.76 624.279L1697.45 626.244L1702.69 613.724L1698 611.759ZM1704.26 614.379L1699.02 626.899L1703.71 628.864L1708.95 616.344L1704.26 614.379ZM1710.52 616.999L1705.28 629.518L1709.97 631.483L1715.21 618.964L1710.52 616.999ZM1698.91 613.979L1700.47 614.634L1699.82 616.199L1698.25 615.544L1698.91 613.979ZM1705.17 616.599L1706.73 617.254L1706.08 618.819L1704.51 618.164L1705.17 616.599ZM1711.43 619.219L1712.99 619.874L1712.34 621.439L1710.77 620.784L1711.43 619.219Z" fill="#FDFDFE"/>
</g>
<g opacity="0.2">
<path d="M861.439 228.996L857.932 220.808L854.813 222.144L864.164 243.977L872.018 236.461L875.524 244.648L878.643 243.313L869.293 221.48L861.439 228.996ZM870.682 233.342L865.446 238.353L862.774 232.115L868.011 227.104L870.682 233.342Z" fill="#FDFDFE"/>
</g>
<g opacity="0.2" clip-path="url(#clip6_695_388)">
<path d="M1082.61 191.713L1084.11 188.671L1078.03 185.665L1073.89 194.03C1073.49 193.243 1072.86 192.571 1071.99 192.142C1070.98 191.644 1069.81 191.567 1068.75 191.927C1067.68 192.288 1066.81 193.057 1066.31 194.066C1065.81 195.074 1065.73 196.239 1066.09 197.305C1066.45 198.37 1067.22 199.249 1068.23 199.747C1069.24 200.245 1070.4 200.323 1071.47 199.962C1072.53 199.601 1073.41 198.832 1073.91 197.824L1078.05 189.458L1082.61 191.713ZM1081.78 178.06C1083.78 179.047 1085.57 180.418 1087.03 182.094C1088.5 183.77 1089.62 185.719 1090.34 187.829C1091.05 189.94 1091.34 192.17 1091.2 194.393C1091.05 196.616 1090.47 198.788 1089.48 200.785C1087.49 204.819 1083.97 207.896 1079.71 209.339C1075.45 210.781 1070.79 210.472 1066.75 208.479C1064.76 207.492 1062.97 206.121 1061.51 204.445C1060.04 202.769 1058.92 200.82 1058.2 198.71C1056.76 194.448 1057.07 189.788 1059.06 185.754C1061.05 181.72 1064.57 178.644 1068.83 177.201C1073.09 175.758 1077.75 176.067 1081.78 178.06V178.06Z" fill="#FDFDFE"/>
</g>
<g opacity="0.2">
<path d="M1103.5 -1.75V16.7125C1102.49 16.1175 1101.33 15.75 1100.08 15.75C1096.31 15.75 1093.25 18.8825 1093.25 22.75C1093.25 26.6175 1096.31 29.75 1100.08 29.75C1103.86 29.75 1106.92 26.6175 1106.92 22.75V5.25H1113.75V-1.75H1103.5Z" fill="#FDFDFE"/>
</g>
<g opacity="0.2">
<path d="M1042.81 317.667L1040.96 314.826L1025.96 324.625C1025.91 323.431 1025.55 322.271 1024.9 321.265C1024.17 320.142 1023.12 319.261 1021.88 318.735C1020.65 318.208 1019.28 318.06 1017.97 318.308C1016.65 318.556 1015.43 319.19 1014.47 320.129C1013.51 321.068 1012.85 322.271 1012.58 323.584C1012.3 324.898 1012.42 326.264 1012.92 327.509C1013.43 328.754 1014.28 329.823 1015.39 330.58C1016.5 331.337 1017.81 331.749 1019.15 331.762C1020.49 331.776 1021.81 331.392 1022.93 330.658L1042.81 317.667ZM1016.38 326.833C1016.01 326.271 1015.82 325.613 1015.83 324.942C1015.83 324.271 1016.04 323.617 1016.42 323.063C1016.8 322.509 1017.33 322.079 1017.95 321.829C1018.58 321.579 1019.26 321.518 1019.92 321.656C1020.57 321.794 1021.17 322.123 1021.64 322.603C1022.11 323.082 1022.43 323.69 1022.55 324.349C1022.68 325.009 1022.6 325.69 1022.34 326.308C1022.08 326.925 1021.64 327.45 1021.08 327.817C1020.32 328.31 1019.4 328.482 1018.52 328.298C1017.64 328.113 1016.87 327.586 1016.38 326.833ZM1020.99 336.992C1020.72 336.571 1020.57 336.077 1020.58 335.574C1020.58 335.071 1020.74 334.58 1021.02 334.165C1021.3 333.749 1021.7 333.427 1022.17 333.239C1022.64 333.051 1023.15 333.006 1023.64 333.11C1024.14 333.213 1024.59 333.46 1024.94 333.819C1025.29 334.179 1025.53 334.635 1025.62 335.129C1025.72 335.624 1025.66 336.135 1025.46 336.598C1025.26 337.061 1024.93 337.455 1024.51 337.731C1023.95 338.1 1023.26 338.229 1022.6 338.091C1021.94 337.952 1021.36 337.557 1020.99 336.992Z" fill="#FDFDFE"/>
</g>
<g opacity="0.2">
<path d="M1208.74 165.418L1207.69 158.714L1197.64 160.292L1200.41 177.974C1199.33 177.559 1198.14 177.386 1196.91 177.578C1193.21 178.159 1190.68 181.629 1191.26 185.333C1191.84 189.037 1195.31 191.567 1199.02 190.985C1202.72 190.404 1205.25 186.934 1204.67 183.23L1203.09 173.174L1209.8 172.122L1209.01 167.094L1202.3 168.146L1202.04 166.47L1208.74 165.418Z" fill="#FDFDFE"/>
</g>
<g opacity="0.2">
<path d="M704.849 676.563L706.327 670.813L710.875 668.11C712.523 667.15 713.301 665.143 712.795 663.296C712.389 661.808 711.24 660.69 709.811 660.322C709.466 660.234 709.059 660.182 708.721 660.2C706.824 660.221 705.203 661.555 704.73 663.396L703.362 668.719L696.864 672.602C693.423 674.678 691.533 678.624 692.095 682.639C692.558 686.086 694.765 688.948 697.809 690.326L697.552 691.328C697.442 691.756 696.963 692.053 696.519 691.939L694.054 691.305L693.21 694.592L695.674 695.225C697.893 695.795 700.251 694.457 700.838 692.173L701.049 691.351C704.384 692.208 708.695 689.953 709.89 685.303C710.861 681.524 708.53 677.509 704.849 676.563ZM708.016 664.24C708.113 663.862 708.37 663.613 708.74 663.603C709.127 663.597 709.467 663.842 709.563 664.217C709.676 664.597 709.505 664.991 709.174 665.186L707.497 666.261L708.016 664.24ZM701.352 676.54C699.488 677.182 697.824 678.682 696.966 680.248L699.967 681.93L698.679 686.941C696.949 685.971 695.701 684.214 695.411 682.143C695.058 679.495 696.284 676.902 698.565 675.526L702.196 673.254L701.352 676.54ZM701.893 688.065L704.03 679.751C705.952 680.245 707.147 682.479 706.637 684.467C705.898 687.342 703.389 688.449 701.893 688.065Z" fill="#FDFDFE"/>
</g>
<g opacity="0.2">
<path d="M1100.81 741.667L1098.96 738.826L1083.96 748.625C1083.91 747.431 1083.55 746.271 1082.9 745.265C1082.17 744.142 1081.12 743.261 1079.88 742.735C1078.65 742.208 1077.28 742.06 1075.97 742.308C1074.65 742.556 1073.43 743.19 1072.47 744.129C1071.51 745.068 1070.85 746.271 1070.58 747.584C1070.3 748.898 1070.42 750.264 1070.92 751.509C1071.43 752.754 1072.28 753.823 1073.39 754.58C1074.5 755.337 1075.81 755.749 1077.15 755.762C1078.49 755.776 1079.81 755.392 1080.93 754.658L1100.81 741.667ZM1074.38 750.833C1074.01 750.271 1073.82 749.613 1073.83 748.942C1073.83 748.271 1074.04 747.617 1074.42 747.063C1074.8 746.509 1075.33 746.079 1075.95 745.829C1076.58 745.579 1077.26 745.518 1077.92 745.656C1078.57 745.794 1079.17 746.123 1079.64 746.603C1080.11 747.082 1080.43 747.69 1080.55 748.349C1080.68 749.009 1080.6 749.69 1080.34 750.308C1080.08 750.925 1079.64 751.45 1079.08 751.817C1078.32 752.31 1077.4 752.482 1076.52 752.298C1075.64 752.113 1074.87 751.586 1074.38 750.833ZM1078.99 760.992C1078.72 760.571 1078.57 760.077 1078.58 759.574C1078.58 759.071 1078.74 758.58 1079.02 758.165C1079.3 757.749 1079.7 757.427 1080.17 757.239C1080.64 757.051 1081.15 757.006 1081.64 757.11C1082.14 757.213 1082.59 757.46 1082.94 757.819C1083.29 758.179 1083.53 758.635 1083.62 759.129C1083.72 759.624 1083.66 760.135 1083.46 760.598C1083.26 761.061 1082.93 761.455 1082.51 761.731C1081.95 762.1 1081.26 762.229 1080.6 762.091C1079.94 761.952 1079.36 761.557 1078.99 760.992Z" fill="#FDFDFE"/>
</g>
<g opacity="0.2">
<path d="M1659.82 91.6669L1657.96 88.8265L1642.96 98.6253C1642.91 97.4309 1642.55 96.2709 1641.9 95.2652C1641.17 94.1416 1640.12 93.261 1638.88 92.7346C1637.65 92.2083 1636.28 92.0598 1634.97 92.3081C1633.65 92.5563 1632.43 93.1901 1631.47 94.1293C1630.51 95.0685 1629.85 96.2709 1629.58 97.5844C1629.3 98.898 1629.42 100.264 1629.92 101.509C1630.43 102.754 1631.28 103.823 1632.39 104.58C1633.5 105.337 1634.81 105.749 1636.15 105.762C1637.49 105.776 1638.81 105.392 1639.93 104.658L1659.82 91.6669ZM1633.38 100.833C1633.01 100.271 1632.82 99.6129 1632.83 98.9419C1632.83 98.2709 1633.04 97.617 1633.42 97.0629C1633.8 96.5088 1634.33 96.0794 1634.95 95.829C1635.58 95.5786 1636.26 95.5184 1636.92 95.6561C1637.57 95.7938 1638.17 96.1232 1638.64 96.6026C1639.11 97.082 1639.43 97.6898 1639.56 98.3493C1639.68 99.0088 1639.61 99.6903 1639.34 100.308C1639.08 100.925 1638.64 101.45 1638.08 101.817C1637.32 102.31 1636.41 102.482 1635.52 102.298C1634.64 102.113 1633.87 101.586 1633.38 100.833ZM1637.99 110.992C1637.72 110.571 1637.57 110.077 1637.58 109.574C1637.58 109.071 1637.74 108.58 1638.02 108.165C1638.3 107.749 1638.71 107.427 1639.17 107.239C1639.64 107.051 1640.15 107.006 1640.64 107.11C1641.14 107.213 1641.59 107.46 1641.94 107.819C1642.29 108.179 1642.53 108.635 1642.62 109.129C1642.72 109.624 1642.66 110.135 1642.46 110.598C1642.27 111.061 1641.94 111.455 1641.51 111.731C1640.95 112.1 1640.26 112.229 1639.6 112.091C1638.94 111.952 1638.36 111.557 1637.99 110.992Z" fill="#FDFDFE"/>
</g>
<g opacity="0.2">
<path d="M1195.17 584.449L1194.12 577.745L1184.06 579.323L1186.84 597.004C1185.76 596.59 1184.57 596.416 1183.34 596.608C1179.64 597.189 1177.11 600.66 1177.69 604.364C1178.27 608.068 1181.74 610.597 1185.45 610.016C1189.15 609.435 1191.68 605.964 1191.1 602.26L1189.52 592.205L1196.22 591.153L1195.44 586.125L1188.73 587.177L1188.47 585.501L1195.17 584.449Z" fill="#FDFDFE"/>
</g>
<g opacity="0.2" clip-path="url(#clip7_695_388)">
<path d="M425.068 753.995L436.107 772.101C436.927 773.446 437.179 775.061 436.807 776.592C436.436 778.122 435.472 779.442 434.128 780.262C432.783 781.082 431.168 781.334 429.638 780.963C428.107 780.592 426.787 779.628 425.967 778.283C425.147 776.938 424.895 775.323 425.267 773.793C425.638 772.262 426.602 770.942 427.946 770.122C428.728 769.646 429.573 769.369 430.419 769.29L425.236 760.787L412.631 772.704L420.491 785.595C421.31 786.94 421.562 788.555 421.191 790.086C420.82 791.616 419.856 792.936 418.512 793.756C417.167 794.576 415.552 794.828 414.021 794.457C412.491 794.086 411.171 793.122 410.351 791.777C409.531 790.432 409.279 788.817 409.65 787.287C410.022 785.756 410.985 784.436 412.33 783.616C413.112 783.14 413.957 782.863 414.803 782.784L407.438 770.704L425.068 753.995Z" fill="#FDFDFE"/>
</g>
<g opacity="0.2">
<path d="M591 620V637.583C590.017 637.017 588.883 636.667 587.667 636.667C583.983 636.667 581 639.65 581 643.333C581 647.017 583.983 650 587.667 650C591.35 650 594.333 647.017 594.333 643.333V626.667H601V620H591Z" fill="#FDFDFE"/>
</g>
<g opacity="0.2" clip-path="url(#clip8_695_388)">
<path d="M951.068 565.995L962.107 584.101C962.927 585.446 963.179 587.061 962.807 588.592C962.436 590.122 961.472 591.442 960.128 592.262C958.783 593.082 957.168 593.334 955.638 592.963C954.107 592.592 952.787 591.628 951.967 590.283C951.147 588.938 950.895 587.323 951.267 585.793C951.638 584.262 952.602 582.942 953.946 582.122C954.728 581.646 955.573 581.369 956.419 581.29L951.236 572.787L938.631 584.704L946.491 597.595C947.31 598.94 947.562 600.555 947.191 602.086C946.82 603.616 945.856 604.936 944.512 605.756C943.167 606.576 941.552 606.828 940.021 606.457C938.491 606.086 937.171 605.122 936.351 603.777C935.531 602.432 935.279 600.817 935.65 599.287C936.022 597.756 936.985 596.436 938.33 595.616C939.112 595.14 939.957 594.863 940.803 594.784L933.438 582.704L951.068 565.995Z" fill="#FDFDFE"/>
</g>
<g opacity="0.2" clip-path="url(#clip9_695_388)">
<path d="M1311.61 738.713L1313.11 735.671L1307.03 732.665L1302.89 741.03C1302.49 740.243 1301.86 739.571 1300.99 739.142C1299.98 738.644 1298.81 738.567 1297.75 738.927C1296.68 739.288 1295.81 740.057 1295.31 741.066C1294.81 742.074 1294.73 743.239 1295.09 744.305C1295.45 745.37 1296.22 746.249 1297.23 746.747C1298.24 747.245 1299.4 747.323 1300.47 746.962C1301.53 746.601 1302.41 745.832 1302.91 744.824L1307.05 736.458L1311.61 738.713ZM1310.78 725.06C1312.78 726.047 1314.57 727.418 1316.03 729.094C1317.5 730.77 1318.62 732.719 1319.34 734.829C1320.05 736.94 1320.34 739.17 1320.2 741.393C1320.05 743.616 1319.47 745.788 1318.48 747.785C1316.49 751.819 1312.97 754.896 1308.71 756.339C1304.45 757.781 1299.79 757.472 1295.75 755.479C1293.76 754.492 1291.97 753.121 1290.51 751.445C1289.04 749.769 1287.92 747.82 1287.2 745.71C1285.76 741.448 1286.07 736.788 1288.06 732.754C1290.05 728.72 1293.57 725.644 1297.83 724.201C1302.09 722.758 1306.75 723.067 1310.78 725.06V725.06Z" fill="#FDFDFE"/>
</g>
<defs>
<clipPath id="clip0_695_388">
<rect width="40.7155" height="40.7155" fill="white" transform="translate(33 490.194) rotate(-31.3682)"/>
</clipPath>
<clipPath id="clip1_695_388">
<rect width="40.7155" height="40.7155" fill="white" transform="translate(179.037 558) rotate(26.2957)"/>
</clipPath>
<clipPath id="clip2_695_388">
<rect width="40.7155" height="40.7155" fill="white" transform="translate(-27 111.194) rotate(-31.3682)"/>
</clipPath>
<clipPath id="clip3_695_388">
<rect width="40.7155" height="40.7155" fill="white" transform="translate(318.037 178) rotate(26.2957)"/>
</clipPath>
<clipPath id="clip4_695_388">
<rect width="40.7155" height="40.7155" fill="white" transform="translate(305.216 -26) rotate(22.7092)"/>
</clipPath>
<clipPath id="clip5_695_388">
<rect width="40.7155" height="40.7155" fill="white" transform="translate(1690.72 594) rotate(22.7092)"/>
</clipPath>
<clipPath id="clip6_695_388">
<rect width="40.7155" height="40.7155" fill="white" transform="translate(1065.04 166) rotate(26.2957)"/>
</clipPath>
<clipPath id="clip7_695_388">
<rect width="40.7155" height="40.7155" fill="white" transform="translate(392 768.194) rotate(-31.3682)"/>
</clipPath>
<clipPath id="clip8_695_388">
<rect width="40.7155" height="40.7155" fill="white" transform="translate(918 580.194) rotate(-31.3682)"/>
</clipPath>
<clipPath id="clip9_695_388">
<rect width="40.7155" height="40.7155" fill="white" transform="translate(1294.04 713) rotate(26.2957)"/>
</clipPath>
</defs>
</svg>
