<svg width="176" height="29" viewBox="0 0 176 49" fill="none" xmlns="http://www.w3.org/2000/svg">
<path d="M11.264 48.128C8.96 48.128 7.06133 47.7867 5.568 47.104C4.11733 46.4213 2.98667 45.504 2.176 44.352C1.36533 43.1573 0.789333 41.792 0.448 40.256C0.149333 38.6773 0 36.992 0 35.2V15.936H10.368V34.048C10.368 35.6267 10.6667 36.6933 11.264 37.248C11.904 37.76 12.7147 38.016 13.696 38.016C14.464 38.016 15.2107 37.888 15.936 37.632C16.704 37.376 17.4507 36.992 18.176 36.48C18.944 35.968 19.6907 35.3067 20.416 34.496L22.592 39.616H19.392V15.936H29.824V47.296H22.144L20.032 40.832L23.808 41.28C22.784 42.432 21.6107 43.5413 20.288 44.608C18.9653 45.632 17.536 46.4853 16 47.168C14.5067 47.808 12.928 48.128 11.264 48.128Z" fill="#FDFDFE"/>
<path d="M41.628 15.936L44.316 24.704V47.296H33.948V31.616V15.936H41.628ZM41.884 30.784L40.22 30.08V21.888L40.86 21.184C41.372 20.416 42.1187 19.5627 43.1 18.624C44.124 17.6853 45.276 16.8747 46.556 16.192C47.8787 15.4667 49.244 15.104 50.652 15.104C51.3347 15.104 51.9533 15.168 52.508 15.296C53.0627 15.3813 53.4893 15.5307 53.788 15.744V25.216H51.676C49.0307 25.216 46.876 25.664 45.212 26.56C43.5907 27.4133 42.4813 28.8213 41.884 30.784Z" fill="#FDFDFE"/>
<path d="M66.788 47.296L52.196 3.712H62.884L74.788 40.192H70.308L82.34 3.712H92.708L78.116 47.296H66.788Z" fill="#FDFDFE"/>
<path d="M105.632 47.296H95.1995V15.936H105.632V47.296ZM94.4315 6.016C94.4315 4.18133 94.9862 2.73067 96.0955 1.664C97.2048 0.554666 98.6555 0 100.448 0C102.282 0 103.733 0.554666 104.799 1.664C105.866 2.73067 106.399 4.18133 106.399 6.016C106.399 7.76533 105.866 9.19467 104.799 10.304C103.733 11.3707 102.282 11.904 100.448 11.904C98.6555 11.904 97.2048 11.3707 96.0955 10.304C94.9862 9.19467 94.4315 7.76533 94.4315 6.016Z" fill="#FDFDFE"/>
<path d="M127.679 48.128C124.991 48.128 122.623 47.4667 120.575 46.144C118.57 44.8213 116.991 42.9227 115.839 40.448C114.73 37.9733 114.175 35.0293 114.175 31.616C114.175 27.9893 114.73 24.96 115.839 22.528C116.948 20.0533 118.506 18.1973 120.511 16.96C122.516 15.7227 124.884 15.104 127.615 15.104C130.388 15.104 132.863 15.808 135.039 17.216C137.258 18.624 138.986 20.5867 140.223 23.104C141.46 25.5787 142.079 28.416 142.079 31.616C142.079 34.7733 141.46 37.6107 140.223 40.128C139.028 42.6453 137.343 44.608 135.167 46.016C133.034 47.424 130.538 48.128 127.679 48.128ZM109.823 47.296V3.712H120.191V25.216H119.615V38.72H120.191L117.503 47.296H109.823ZM125.631 38.144C127.295 38.144 128.682 37.5467 129.791 36.352C130.943 35.1147 131.519 33.536 131.519 31.616C131.519 29.7387 130.943 28.1813 129.791 26.944C128.682 25.664 127.295 25.024 125.631 25.024C123.967 25.024 122.559 25.664 121.407 26.944C120.255 28.1813 119.679 29.7387 119.679 31.616C119.679 33.536 120.255 35.1147 121.407 36.352C122.559 37.5467 123.967 38.144 125.631 38.144Z" fill="#FDFDFE"/>
<path d="M160.087 47.872C156.93 47.872 154.157 47.2107 151.768 45.888C149.421 44.5653 147.586 42.688 146.264 40.256C144.941 37.824 144.279 34.944 144.279 31.616C144.279 28.416 144.941 25.5787 146.264 23.104C147.586 20.6293 149.421 18.688 151.768 17.28C154.157 15.8293 156.93 15.104 160.087 15.104C163.373 15.104 166.189 15.8507 168.536 17.344C170.882 18.8373 172.695 20.8213 173.975 23.296C175.255 25.728 175.896 28.4587 175.896 31.488C175.896 32.1707 175.874 32.7893 175.831 33.344C175.789 33.8987 175.725 34.3467 175.639 34.688H152.023V27.648H167.639L166.743 29.952C166.743 27.9467 166.21 26.304 165.144 25.024C164.077 23.744 162.434 23.104 160.215 23.104C158.167 23.104 156.546 23.7013 155.352 24.896C154.157 26.0907 153.559 27.6907 153.559 29.696V33.216C153.559 35.392 154.2 37.0773 155.48 38.272C156.76 39.424 158.551 40 160.855 40C162.69 40 164.141 39.6587 165.208 38.976C166.317 38.2507 167.234 37.3333 167.96 36.224L174.872 39.936C173.549 42.368 171.607 44.3093 169.048 45.76C166.488 47.168 163.501 47.872 160.087 47.872Z" fill="#FDFDFE"/>
</svg>
