<svg width="62" height="62" viewBox="0 0 62 62" fill="none" xmlns="http://www.w3.org/2000/svg">
<path d="M31 14.2085C33.398 14.2085 35.6978 15.1611 37.3934 16.8567C39.0891 18.5524 40.0417 20.8522 40.0417 23.2502C40.0417 25.6482 39.0891 27.9479 37.3934 29.6436C35.6978 31.3392 33.398 32.2918 31 32.2918C28.602 32.2918 26.3022 31.3392 24.6066 29.6436C22.9109 27.9479 21.9583 25.6482 21.9583 23.2502C21.9583 20.8522 22.9109 18.5524 24.6066 16.8567C26.3022 15.1611 28.602 14.2085 31 14.2085V14.2085ZM12.9167 20.6668C14.3633 20.6668 15.7067 21.0543 16.8692 21.7518C16.4817 25.446 17.5667 29.1143 19.7883 31.9818C18.4967 34.4618 15.9133 36.1668 12.9167 36.1668C10.8612 36.1668 8.89 35.3503 7.43659 33.8969C5.98318 32.4435 5.16667 30.4723 5.16667 28.4168C5.16667 26.3614 5.98318 24.3902 7.43659 22.9368C8.89 21.4833 10.8612 20.6668 12.9167 20.6668V20.6668ZM49.0833 20.6668C51.1388 20.6668 53.11 21.4833 54.5634 22.9368C56.0168 24.3902 56.8333 26.3614 56.8333 28.4168C56.8333 30.4723 56.0168 32.4435 54.5634 33.8969C53.11 35.3503 51.1388 36.1668 49.0833 36.1668C46.0867 36.1668 43.5033 34.4618 42.2117 31.9818C44.4333 29.1143 45.5183 25.446 45.1308 21.7518C46.2933 21.0543 47.6367 20.6668 49.0833 20.6668ZM14.2083 47.146C14.2083 41.7985 21.7258 37.4585 31 37.4585C40.2742 37.4585 47.7917 41.7985 47.7917 47.146V51.6668H14.2083V47.146ZM0 51.6668V47.7918C0 44.201 4.8825 41.1785 11.4958 40.3002C9.97167 42.0568 9.04167 44.4852 9.04167 47.146V51.6668H0ZM62 51.6668H52.9583V47.146C52.9583 44.4852 52.0283 42.0568 50.5042 40.3002C57.1175 41.1785 62 44.201 62 47.7918V51.6668Z" fill="#2A282C"/>
</svg>
