<svg width="62" height="62" viewBox="0 0 62 62" fill="none" xmlns="http://www.w3.org/2000/svg">
<path d="M31 20.6665C33.0554 20.6665 35.0267 19.85 36.4801 18.3966C37.9335 16.9432 38.75 14.9719 38.75 12.9165C38.75 10.8611 37.9335 8.88983 36.4801 7.43643C35.0267 5.98302 33.0554 5.1665 31 5.1665C28.9446 5.1665 26.9733 5.98302 25.5199 7.43643C24.0665 8.88983 23.25 10.8611 23.25 12.9165C23.25 14.9719 24.0665 16.9432 25.5199 18.3966C26.9733 19.85 28.9446 20.6665 31 20.6665ZM31 29.8115C24.9033 24.154 16.7917 20.6665 7.75 20.6665V49.0832C16.7917 49.0832 24.9033 52.5707 31 58.2282C37.0967 52.5707 45.2083 49.0832 54.25 49.0832V20.6665C45.2083 20.6665 37.0967 24.154 31 29.8115Z" fill="#2A282C"/>
</svg>
